<svg width="22" height="21" viewBox="0 0 22 21" fill="none" xmlns="http://www.w3.org/2000/svg">
<path fill-rule="evenodd" clip-rule="evenodd" d="M8.55586 20.9895V18.8573C6.8642 17.4006 1.66943 12.6037 1.66943 8.64121V8.40879C1.66943 4.67694 4.75874 1.64074 8.55586 1.64074C12.1235 1.64074 15.0659 4.32101 15.4086 7.74029L17.0818 9.24049C17.1011 9.0381 17.1117 8.83813 17.1117 8.64121V8.40879C17.1117 3.77217 13.2736 0 8.55586 0C3.83814 0 0 3.77217 0 8.40879V8.64121C0 10.9861 1.36791 13.7187 4.0658 16.763C6.02156 18.9697 7.95019 20.5086 8.03125 20.573L8.55586 20.9895ZM16.1935 17.6757H13.6895V15.2179H16.1935V17.6757ZM8.55581 4.91887C10.5119 4.91887 12.1034 6.48286 12.1034 8.40518C12.1034 10.3275 10.5119 11.8915 8.55581 11.8915C6.59969 11.8915 5.00818 10.3275 5.00818 8.40518C5.00818 6.48286 6.59969 4.91887 8.55581 4.91887ZM6.6777 8.40689C6.6777 7.38957 7.52023 6.562 8.55594 6.562C9.59148 6.562 10.4342 7.38957 10.4342 8.40689C10.4342 9.42405 9.59148 10.2518 8.55594 10.2518C7.52023 10.2518 6.6777 9.42405 6.6777 8.40689ZM20.296 16.5622L19.8266 16.1413V18.7757C19.8266 20.0023 18.8112 21.0002 17.5633 21.0002H12.2778C11.0299 21.0002 10.0145 20.0023 10.0145 18.7757V16.1413L9.5451 16.5622L8.42005 15.35L14.9205 9.52084L21.421 15.35L20.296 16.5622ZM14.9205 11.7441L18.1572 14.6456V18.7756C18.1572 19.0974 17.8908 19.3592 17.5633 19.3592H12.2779C11.9504 19.3592 11.684 19.0974 11.684 18.7756V14.6456L14.9205 11.7441Z" fill="#AE895D"/>
</svg>
