<svg width="18" height="29" viewBox="0 0 18 29" fill="none" xmlns="http://www.w3.org/2000/svg">
<path fill-rule="evenodd" clip-rule="evenodd" d="M2.20904 0H14.981C16.2011 0 17.19 0.945904 17.19 2.11034V26.8622C17.19 28.0256 16.2011 28.9704 14.981 28.9704H2.20904C0.98671 28.9704 0 28.0256 0 26.8622V2.11034C0 0.945904 0.98671 0 2.20904 0ZM11.7485 1.27836H5.44345C5.28305 1.27836 5.15585 1.50481 5.15585 1.78497C5.15585 2.06513 5.28305 2.29263 5.44345 2.29263H11.7485C11.9078 2.29263 12.0372 2.06513 12.0372 1.78497C12.0372 1.50481 11.9078 1.27836 11.7485 1.27836ZM8.59586 26.8829C7.81822 26.8829 7.18549 26.2799 7.18549 25.5377C7.18549 24.7955 7.81822 24.1946 8.59586 24.1946C9.37129 24.1946 10.004 24.7955 10.004 25.5377C10.004 26.2799 9.37129 26.8829 8.59586 26.8829ZM1.65606 22.2716H15.535V3.55825H1.65606V22.2716Z" fill="#AE895D"/>
</svg>
