<svg width="21" height="16" viewBox="0 0 21 16" fill="none" xmlns="http://www.w3.org/2000/svg">
<path d="M19.0259 0H1.83333C0.823696 0 0 0.808358 0 1.80115V13.8088C0 14.7983 0.820029 15.61 1.83333 15.61H19.0259C20.033 15.61 20.8593 14.8044 20.8593 13.8088V1.80115C20.8593 0.81172 20.0392 0 19.0259 0ZM18.7728 1.20077L10.4685 9.35932L2.0924 1.20077H18.7728ZM1.22222 13.5602V2.04407L7.1084 7.77734L1.22222 13.5602ZM2.08645 14.4092L7.97634 8.62272L10.0401 10.6329C10.279 10.8656 10.6646 10.8648 10.9025 10.6311L12.9148 8.65406L18.7728 14.4092H2.08645ZM19.637 13.5602L13.779 7.805L19.637 2.04979V13.5602Z" fill="#AE895D"/>
</svg>
