<svg width="60" height="60" viewBox="0 0 60 60" fill="none" xmlns="http://www.w3.org/2000/svg">
<circle cx="30" cy="30" r="30" fill="#353739"/>
<path d="M16.0801 44.2192L21.1824 42.7144C21.1824 42.7144 21.3366 42.6643 21.495 42.6226C21.5367 42.7727 21.5826 42.9269 21.5826 42.9269L23.0999 48.0376L29.7487 35.8029C26.9823 35.709 24.3327 34.6653 22.2454 32.8474L16.0801 44.2192Z" fill="#AE895D"/>
<path d="M38.1772 32.835C36.0925 34.6589 33.4421 35.7073 30.6738 35.803L37.3477 48.0376L38.8525 42.927C38.8525 42.927 38.9025 42.7728 38.9442 42.6227C39.1026 42.6644 39.2527 42.7144 39.2527 42.7144L44.3591 44.2192L38.1772 32.835Z" fill="#AE895D"/>
<path d="M33.263 33.8062C33.6506 33.691 34.0307 33.5518 34.401 33.3894C36.6407 32.4192 38.4775 30.7067 39.602 28.5405C40.7265 26.3742 41.07 23.8865 40.5747 21.4966C40.0793 19.1066 38.7752 16.9605 36.8823 15.4197C34.9894 13.8789 32.6232 13.0376 30.1825 13.0376C27.7417 13.0376 25.3755 13.8789 23.4826 15.4197C21.5897 16.9605 20.2857 19.1066 19.7903 21.4966C19.2949 23.8865 19.6384 26.3742 20.7629 28.5405C21.8874 30.7067 23.7242 32.4192 25.9639 33.3894C26.37 33.5688 26.7879 33.7206 27.2145 33.8437C29.1856 34.4274 31.2836 34.4274 33.2547 33.8437L33.263 33.8062Z" fill="#AE895D"/>
</svg>
