<svg width="60" height="60" viewBox="0 0 60 60" fill="none" xmlns="http://www.w3.org/2000/svg">
<circle cx="30" cy="30" r="30" fill="#AE895D"/>
<path d="M42.1172 25.0859C42.1172 24.9219 42.0625 24.8125 41.9531 24.7031L40.9141 23.6641L41.6797 22.3516C41.8438 22.0781 41.7344 21.75 41.4609 21.5859L40.2031 20.8203L40.5859 19.3984C40.6406 19.125 40.4766 18.7969 40.2031 18.7422L38.7812 18.3594V16.9375C38.7812 16.6094 38.5078 16.3906 38.2344 16.3906H36.7578L36.3203 14.9688C36.2656 14.8047 36.2109 14.6953 36.0469 14.6406C35.9375 14.5859 35.7734 14.5312 35.6094 14.5859L34.1875 14.9688L33.4219 13.6562C33.3672 13.5469 33.2031 13.4375 33.0937 13.3828C32.9297 13.3281 32.8203 13.3828 32.6562 13.4375L31.3984 14.2031L30.3594 13.1641C30.25 13.0547 30.1406 13 29.9766 13C29.8125 13 29.7031 13.0547 29.5938 13.1641L28.5547 14.2031L27.2969 13.4375C27.1875 13.3828 27.0234 13.3281 26.8594 13.3828C26.6953 13.4375 26.5859 13.4922 26.5312 13.6562L25.8203 14.9688L24.3984 14.5859C24.125 14.4766 23.7969 14.6953 23.7422 14.9688L23.3594 16.3906H21.8828C21.6094 16.3906 21.3359 16.6094 21.3359 16.9375V18.4141L19.9141 18.7969C19.75 18.8516 19.6406 18.9062 19.5859 19.0703C19.5312 19.1797 19.4766 19.3438 19.5313 19.5078L19.9141 20.9297L18.6562 21.6953C18.5469 21.75 18.4375 21.8594 18.3828 22.0234C18.3281 22.1875 18.3828 22.2969 18.4375 22.4609L19.2031 23.7734L18.1641 24.8125C18.0547 24.9219 18 25.0312 18 25.1953C18 25.3594 18.0547 25.4688 18.1641 25.5781L19.2031 26.6172L18.4375 27.875C18.3828 27.9844 18.3281 28.1484 18.3828 28.3125C18.4375 28.4766 18.4922 28.5859 18.6562 28.6406L19.9141 29.4062L19.5313 30.8281C19.4766 30.9922 19.5312 31.1016 19.5859 31.2656C19.6406 31.375 19.75 31.4844 19.9141 31.5391L21.3359 31.9219V33.3984C21.3359 33.7266 21.6094 33.9453 21.8828 33.9453H23.3594L23.7422 35.3672C23.7969 35.6406 24.125 35.8047 24.3984 35.75L25.8203 35.3672L26.5312 36.625C26.6953 36.8984 27.0234 36.9531 27.2969 36.8438L28.5547 36.1328L29.5938 37.1719C29.7031 37.2812 29.8125 37.3359 29.9766 37.3359C30.1406 37.3359 30.25 37.2812 30.3594 37.1719L31.3984 36.1328L32.6562 36.8438C32.9297 37.0078 33.2578 36.8984 33.4219 36.625L34.1875 35.3672L35.6094 35.75C35.7734 35.8047 35.8828 35.75 36.0469 35.6953C36.1562 35.6406 36.2656 35.5312 36.3203 35.3672L36.7031 33.9453H38.1797C38.4531 33.9453 38.7266 33.7266 38.7266 33.3984V31.9219L40.1484 31.5391C40.4219 31.4297 40.5859 31.1562 40.5312 30.8828L40.1484 29.4609L41.4062 28.6953C41.6797 28.5312 41.7344 28.2031 41.625 27.9297L40.8594 26.6719L41.8984 25.6328C42.0625 25.3594 42.1172 25.25 42.1172 25.0859ZM30.0312 32.6875C25.8203 32.6875 22.4297 29.2969 22.4297 25.0859C22.4297 20.875 25.8203 17.4844 30.0312 17.4844C34.2422 17.4844 37.6328 20.9297 37.6328 25.0859C37.6328 29.2422 34.2422 32.6875 30.0312 32.6875Z" fill="white"/>
<path d="M37.3594 35.6953C37.1953 36.0781 36.9766 36.3516 36.6484 36.5703C36.4297 36.6797 36.1562 36.7891 35.8281 36.7891C35.6641 36.7891 35.5547 36.7891 35.3906 36.7344L34.7891 36.5703L34.4609 37.1172C34.1328 37.6094 33.6406 37.8828 33.0391 37.8828C32.7656 37.8828 32.4375 37.8281 32.2188 37.6641L31.6719 37.3359L31.2344 37.7734C31.125 37.8828 30.9609 37.9922 30.8516 38.0469L35.3359 47.6172C35.4453 47.7812 35.6094 47.9453 35.8281 47.9453C36.0469 47.9453 36.2109 47.8359 36.3203 47.6719L37.9063 44.8828L41.0781 45.4297C41.2969 45.4844 41.4609 45.375 41.625 45.2109C41.7344 45.0469 41.7891 44.8281 41.6797 44.6641L37.3594 35.6953Z" fill="white"/>
<path d="M28.3907 37.3906L27.8438 37.7188C27.5704 37.8828 27.2969 37.9375 27.0235 37.9375C26.4219 37.9375 25.875 37.6094 25.6016 37.1172L25.2735 36.5703L24.6719 36.7344C24.5625 36.7891 24.3985 36.7891 24.2344 36.7891C23.5235 36.7891 22.9219 36.3516 22.7032 35.6953L18.4922 44.7188C18.3829 44.8828 18.4375 45.1016 18.5469 45.2656C18.6563 45.4297 18.875 45.4844 19.0938 45.4844L22.2657 44.9375L23.8516 47.7266C23.961 47.8906 24.125 48 24.3438 48C24.5625 48 24.7266 47.8906 24.836 47.6719L29.3204 38.1016C29.1563 38.0469 29.0469 37.9375 28.9375 37.8281L28.3907 37.3906Z" fill="white"/>
<path d="M30.0312 18.5781C26.4219 18.5781 23.5234 21.4766 23.5234 25.0859C23.5234 28.6953 26.4219 31.5938 30.0312 31.5938C33.6406 31.5938 36.5391 28.6953 36.5391 25.0859C36.5391 21.5313 33.6406 18.5781 30.0312 18.5781Z" fill="white"/>
</svg>
